# Blender v2.75 (sub 0) OBJ File: 'cabinet.blend'
# www.blender.org
mtllib cabinet.mtl
o Plane_Plane.001
v -3.842869 -0.016633 3.842869
v 3.842869 -0.016633 3.842869
v -3.842869 -0.016633 -3.842869
v 3.842869 -0.016633 -3.842869
vn 0.000000 1.000000 0.000000
usemtl None
s off
f 1//1 2//1 4//1 3//1
o cabinet_Cube.004
v -0.667285 0.038569 0.444326
v -0.667285 1.999259 0.444326
v -0.667286 0.038569 -0.053908
v -0.667286 1.999259 -0.053908
v 0.716654 0.038569 0.444325
v 0.716654 1.999259 0.444325
v 0.716654 0.038569 -0.053909
v 0.716654 1.999259 -0.053909
v -0.625674 0.070974 0.444326
v -0.625674 1.966853 0.444326
v 0.675043 1.966853 0.444326
v 0.675043 0.070974 0.444326
v -0.625674 0.070974 0.424835
v -0.625674 1.966853 0.424835
v 0.675043 1.966853 0.424834
v 0.675043 0.070974 0.424834
v -0.667285 0.430707 0.444326
v -0.667285 0.822845 0.444326
v -0.667285 1.214983 0.444326
v -0.667285 1.607121 0.444326
v -0.667286 1.607121 -0.053908
v -0.667286 1.214983 -0.053908
v -0.667286 0.822845 -0.053908
v -0.667286 0.430707 -0.053908
v 0.716654 1.607121 -0.053909
v 0.716654 1.214983 -0.053909
v 0.716654 0.822845 -0.053909
v 0.716654 0.430707 -0.053909
v 0.716654 1.607121 0.444325
v 0.716654 1.214983 0.444325
v 0.716654 0.822845 0.444325
v 0.716654 0.430707 0.444325
v -0.625674 0.450150 0.444326
v -0.625674 0.829326 0.444326
v -0.625674 1.208502 0.444326
v -0.625674 1.587678 0.444326
v 0.675043 1.587678 0.444326
v 0.675043 1.208502 0.444326
v 0.675043 0.829326 0.444326
v 0.675043 0.450150 0.444326
v -0.625674 0.450150 0.424835
v -0.625674 0.829326 0.424835
v -0.625674 1.208502 0.424835
v -0.625674 1.587678 0.424835
v 0.675043 1.587678 0.424834
v 0.675043 1.208502 0.424834
v 0.675043 0.829326 0.424834
v 0.675043 0.450150 0.424834
v -0.615482 1.598762 0.424835
v -0.615482 1.955769 0.424835
v 0.664851 1.955769 0.424834
v 0.664851 1.598762 0.424834
v -0.615685 1.219500 0.424835
v -0.615685 1.576679 0.424835
v 0.664272 1.576679 0.424834
v 0.664272 1.219500 0.424834
v -0.615014 0.839897 0.424835
v -0.615014 1.197931 0.424835
v 0.664298 1.197931 0.424834
v 0.664298 0.839897 0.424834
v -0.614243 0.457994 0.424835
v -0.614243 0.820246 0.424835
v 0.665035 0.820246 0.424834
v 0.665035 0.457993 0.424834
v 0.662894 0.442259 0.424834
v 0.662894 0.078075 0.424834
v -0.613525 0.078075 0.424835
v -0.613525 0.442259 0.424835
v -0.615482 1.598762 0.441620
v -0.615482 1.955769 0.441620
v 0.664851 1.955769 0.441619
v 0.664851 1.598762 0.441619
v -0.615685 1.219500 0.441620
v -0.615685 1.576679 0.441620
v 0.664272 1.576679 0.441619
v 0.664272 1.219500 0.441619
v -0.615014 0.839897 0.441620
v -0.615014 1.197931 0.441620
v 0.664298 1.197931 0.441619
v 0.664298 0.839897 0.441619
v -0.614243 0.457994 0.441620
v -0.614243 0.820246 0.441620
v 0.665035 0.820246 0.441619
v 0.665035 0.457993 0.441619
v 0.662894 0.442259 0.441619
v 0.662894 0.078075 0.441619
v -0.613525 0.078075 0.441620
v -0.613525 0.442259 0.441620
v -0.104950 1.840317 0.441620
v -0.104950 1.876798 0.441620
v 0.154319 1.876798 0.441620
v 0.154319 1.840317 0.441620
v -0.106716 1.462770 0.441620
v -0.106716 1.499468 0.441620
v 0.155303 1.499468 0.441620
v 0.155303 1.462770 0.441620
v -0.107130 1.086223 0.441620
v -0.107130 1.125408 0.441620
v 0.156413 1.125408 0.441620
v 0.156413 1.086223 0.441620
v -0.107402 0.705832 0.441620
v -0.107402 0.745579 0.441620
v 0.158193 0.745579 0.441620
v 0.158193 0.705832 0.441620
v 0.158474 0.368447 0.441620
v 0.158474 0.329109 0.441620
v -0.109105 0.329109 0.441620
v -0.109105 0.368447 0.441620
v -0.667285 1.803190 0.444326
v -0.625674 1.777265 0.444326
v -0.625674 1.777265 0.424835
v -0.667286 1.803190 -0.053908
v 0.716654 1.803190 -0.053909
v 0.716654 1.803190 0.444325
v 0.675043 1.777265 0.444326
v 0.675043 1.777265 0.424834
v -0.615482 1.777265 0.424835
v 0.664851 1.777265 0.424834
v -0.615482 1.777265 0.441620
v 0.664851 1.777265 0.441619
v -0.104950 1.858558 0.441620
v 0.154319 1.858558 0.441620
v -0.667285 1.411052 0.444326
v -0.667286 1.411052 -0.053908
v 0.716654 1.411052 -0.053909
v 0.716654 1.411052 0.444325
v -0.625674 1.398090 0.444326
v 0.675043 1.398090 0.444326
v -0.625674 1.398090 0.424835
v 0.675043 1.398090 0.424834
v -0.615685 1.398090 0.424835
v 0.664272 1.398090 0.424834
v -0.615685 1.398090 0.441620
v 0.664272 1.398090 0.441619
v -0.106716 1.481119 0.441620
v 0.155303 1.481119 0.441620
v -0.667285 1.018914 0.444326
v -0.667286 1.018914 -0.053908
v 0.716654 1.018914 -0.053909
v 0.716654 1.018914 0.444325
v -0.625674 1.018914 0.444326
v 0.675043 1.018914 0.444326
v -0.625674 1.018914 0.424835
v 0.675043 1.018914 0.424834
v -0.615014 1.018914 0.424835
v 0.664298 1.018914 0.424834
v -0.615014 1.018914 0.441620
v 0.664298 1.018914 0.441619
v -0.107130 1.105815 0.441620
v 0.156413 1.105815 0.441620
v -0.667285 0.626776 0.444326
v -0.667286 0.626776 -0.053908
v 0.716654 0.626776 -0.053909
v 0.716654 0.626776 0.444325
v -0.625674 0.639738 0.444326
v 0.675043 0.639738 0.444326
v -0.625674 0.639738 0.424835
v 0.675043 0.639738 0.424834
v -0.614243 0.639120 0.424835
v 0.665035 0.639120 0.424834
v -0.614243 0.639120 0.441620
v 0.665035 0.639120 0.441619
v -0.107402 0.725706 0.441620
v 0.158193 0.725706 0.441620
v -0.667286 0.234638 -0.053908
v 0.716654 0.234638 -0.053909
v 0.716654 0.234638 0.444325
v 0.675043 0.260562 0.444326
v 0.675043 0.260562 0.424834
v -0.667285 0.234638 0.444326
v -0.625674 0.260562 0.444326
v -0.625674 0.260562 0.424835
v 0.662894 0.260167 0.424834
v -0.613525 0.260167 0.424835
v 0.662894 0.260167 0.441619
v -0.613525 0.260167 0.441620
v 0.158474 0.348778 0.441620
v -0.109105 0.348778 0.441620
v 0.154319 1.869241 0.436957
v 0.154319 1.851001 0.436957
v -0.104950 1.851001 0.436957
v 0.155303 1.491802 0.436957
v 0.155303 1.473454 0.436957
v -0.106716 1.473454 0.436957
v 0.156413 1.116498 0.436957
v 0.156413 1.096906 0.436957
v -0.107130 1.096906 0.436957
v 0.158193 0.736389 0.436957
v 0.158193 0.716516 0.436957
v -0.107402 0.716516 0.436957
v 0.158474 0.359461 0.436957
v 0.158474 0.339792 0.436957
v -0.109105 0.339792 0.436957
v -0.104950 1.869241 0.436957
v -0.106716 1.491802 0.436957
v -0.107130 1.116498 0.436957
v -0.107402 0.736389 0.436957
v -0.109105 0.359461 0.436957
vn -1.000000 0.000000 0.000000
vn -0.000000 0.000000 -1.000000
vn 1.000000 -0.000000 -0.000000
vn 0.000000 0.000000 1.000000
vn 0.000000 -1.000000 -0.000000
vn 0.000000 1.000000 0.000000
vn 0.000000 0.400000 0.916500
vn -0.000000 -0.400000 -0.916500
usemtl wood
s off
f 174//2 169//2 7//2 5//2
f 169//3 170//3 11//3 7//3
f 170//4 171//4 9//4 11//4
f 174//5 5//5 13//5 175//5
f 5//6 7//6 11//6 9//6
f 10//7 12//7 8//7 6//7
f 175//4 13//4 17//4 176//4
f 118//5 10//5 15//5 119//5
f 10//5 6//5 14//5 15//5
f 5//5 9//5 16//5 13//5
f 176//5 17//5 71//5 178//5
f 119//2 15//2 19//2 120//2
f 15//6 14//6 18//6 19//6
f 13//7 16//7 20//7 17//7
f 172//2 44//2 52//2 173//2
f 160//2 43//2 51//2 162//2
f 146//2 42//2 50//2 148//2
f 132//2 41//2 49//2 134//2
f 48//5 49//5 56//5 53//5
f 49//5 48//5 58//5 59//5
f 50//5 47//5 62//5 63//5
f 161//5 45//5 65//5 163//5
f 171//5 36//5 44//5 172//5
f 158//5 35//5 43//5 160//5
f 144//5 34//5 42//5 146//5
f 130//5 33//5 41//5 132//5
f 114//4 40//4 48//4 115//4
f 131//4 39//4 47//4 133//4
f 145//4 38//4 46//4 147//4
f 159//4 37//4 45//4 161//4
f 113//5 24//5 40//5 114//5
f 127//5 23//5 39//5 131//5
f 141//5 22//5 38//5 145//5
f 155//5 21//5 37//5 159//5
f 117//4 118//4 33//4 29//4
f 129//4 130//4 34//4 30//4
f 143//4 144//4 35//4 31//4
f 157//4 158//4 36//4 32//4
f 116//3 117//3 29//3 25//3
f 128//3 129//3 30//3 26//3
f 142//3 143//3 31//3 27//3
f 156//3 157//3 32//3 28//3
f 113//2 116//2 25//2 24//2
f 127//2 128//2 26//2 23//2
f 141//2 142//2 27//2 22//2
f 155//2 156//2 28//2 21//2
f 149//2 61//2 81//2 151//2
f 115//5 48//5 53//5 121//5
f 120//5 19//5 55//5 122//5
f 19//5 18//5 54//5 55//5
f 59//7 58//7 78//7 79//7
f 47//5 50//5 60//5 57//5
f 134//5 49//5 59//5 136//5
f 133//5 47//5 57//5 135//5
f 71//6 70//6 90//6 91//6
f 147//5 46//5 61//5 149//5
f 46//5 51//5 64//5 61//5
f 148//5 50//5 63//5 150//5
f 57//6 60//6 80//6 77//6
f 51//5 46//5 66//5 67//5
f 162//5 51//5 67//5 164//5
f 45//5 52//5 68//5 65//5
f 121//2 53//2 73//2 123//2
f 173//5 52//5 69//5 177//5
f 52//5 45//5 72//5 69//5
f 17//5 20//5 70//5 71//5
f 123//5 73//5 93//5 125//5
f 137//5 77//5 97//5 139//5
f 151//5 81//5 101//5 153//5
f 165//5 85//5 105//5 167//5
f 179//5 89//5 109//5 181//5
f 65//6 68//6 88//6 85//6
f 67//7 66//7 86//7 87//7
f 177//4 69//4 89//4 179//4
f 136//4 59//4 79//4 138//4
f 53//6 56//6 76//6 73//6
f 164//4 67//4 87//4 166//4
f 122//4 55//4 75//4 124//4
f 135//2 57//2 77//2 137//2
f 61//6 64//6 84//6 81//6
f 63//7 62//7 82//7 83//7
f 163//2 65//2 85//2 165//2
f 55//7 54//7 74//7 75//7
f 69//7 72//7 92//7 89//7
f 178//2 71//2 91//2 180//2
f 150//4 63//4 83//4 152//4
f 100//2 140//2 186//2 187//2
f 75//5 74//5 94//5 95//5
f 124//5 75//5 95//5 126//5
f 73//5 76//5 96//5 93//5
f 105//8 108//8 193//8 194//8
f 138//5 79//5 99//5 140//5
f 79//5 78//5 98//5 99//5
f 77//5 80//5 100//5 97//5
f 111//8 110//8 196//8 197//8
f 152//5 83//5 103//5 154//5
f 83//5 82//5 102//5 103//5
f 81//5 84//5 104//5 101//5
f 97//8 100//8 187//8 188//8
f 166//5 87//5 107//5 168//5
f 87//5 86//5 106//5 107//5
f 85//5 88//5 108//5 105//5
f 167//4 105//4 194//4 201//4
f 91//5 90//5 110//5 111//5
f 180//5 91//5 111//5 182//5
f 89//5 92//5 112//5 109//5
f 76//5 124//5 126//5 96//5
f 95//5 94//5 125//5 126//5
f 56//4 122//4 124//4 76//4
f 74//5 123//5 125//5 94//5
f 54//2 121//2 123//2 74//2
f 49//5 120//5 122//5 56//5
f 18//5 115//5 121//5 54//5
f 6//2 8//2 116//2 113//2
f 8//3 12//3 117//3 116//3
f 12//4 10//4 118//4 117//4
f 6//5 113//5 114//5 14//5
f 14//4 114//4 115//4 18//4
f 41//2 119//2 120//2 49//2
f 33//5 118//5 119//5 41//5
f 80//5 138//5 140//5 100//5
f 99//5 98//5 139//5 140//5
f 58//2 135//2 137//2 78//2
f 60//4 136//4 138//4 80//4
f 78//5 137//5 139//5 98//5
f 48//5 133//5 135//5 58//5
f 50//5 134//5 136//5 60//5
f 24//2 25//2 128//2 127//2
f 25//3 29//3 129//3 128//3
f 29//4 33//4 130//4 129//4
f 24//5 127//5 131//5 40//5
f 40//4 131//4 133//4 48//4
f 34//5 130//5 132//5 42//5
f 42//2 132//2 134//2 50//2
f 84//5 152//5 154//5 104//5
f 103//5 102//5 153//5 154//5
f 64//4 150//4 152//4 84//4
f 82//5 151//5 153//5 102//5
f 51//5 148//5 150//5 64//5
f 47//5 147//5 149//5 62//5
f 62//2 149//2 151//2 82//2
f 23//2 26//2 142//2 141//2
f 26//3 30//3 143//3 142//3
f 30//4 34//4 144//4 143//4
f 23//5 141//5 145//5 39//5
f 39//4 145//4 147//4 47//4
f 35//5 144//5 146//5 43//5
f 43//2 146//2 148//2 51//2
f 88//5 166//5 168//5 108//5
f 107//5 106//5 167//5 168//5
f 66//2 163//2 165//2 86//2
f 68//4 164//4 166//4 88//4
f 86//5 165//5 167//5 106//5
f 52//5 162//5 164//5 68//5
f 22//2 27//2 156//2 155//2
f 27//3 31//3 157//3 156//3
f 31//4 35//4 158//4 157//4
f 22//5 155//5 159//5 38//5
f 38//4 159//4 161//4 46//4
f 36//5 158//5 160//5 44//5
f 46//5 161//5 163//5 66//5
f 44//2 160//2 162//2 52//2
f 92//5 180//5 182//5 112//5
f 109//5 112//5 182//5 181//5
f 72//2 178//2 180//2 92//2
f 70//4 177//4 179//4 90//4
f 90//5 179//5 181//5 110//5
f 20//5 173//5 177//5 70//5
f 9//5 171//5 172//5 16//5
f 16//2 172//2 173//2 20//2
f 45//5 176//5 178//5 72//5
f 37//4 175//4 176//4 45//4
f 21//5 174//5 175//5 37//5
f 32//4 36//4 171//4 170//4
f 28//3 32//3 170//3 169//3
f 21//2 28//2 169//2 174//2
f 183//5 198//5 185//5 184//5
f 186//5 199//5 188//5 187//5
f 189//5 200//5 191//5 190//5
f 192//5 201//5 194//5 193//5
f 195//5 202//5 197//5 196//5
f 126//9 125//9 198//9 183//9
f 110//2 181//2 195//2 196//2
f 140//9 139//9 199//9 186//9
f 93//8 96//8 184//8 185//8
f 154//9 153//9 200//9 189//9
f 96//2 126//2 183//2 184//2
f 108//2 168//2 192//2 193//2
f 168//9 167//9 201//9 192//9
f 181//9 182//9 202//9 195//9
f 101//8 104//8 190//8 191//8
f 125//4 93//4 185//4 198//4
f 139//4 97//4 188//4 199//4
f 182//4 111//4 197//4 202//4
f 104//2 154//2 189//2 190//2
f 153//4 101//4 191//4 200//4
o support.003_Cylinder.005
v -0.554542 -0.006869 0.299974
v -0.554542 0.027574 0.292892
v -0.529084 -0.006869 0.310519
v -0.524076 0.027574 0.305511
v -0.518539 -0.006869 0.335977
v -0.511457 0.027574 0.335977
v -0.529084 -0.006869 0.361435
v -0.524076 0.027574 0.366442
v -0.554542 -0.006869 0.371980
v -0.554542 0.027574 0.379062
v -0.580000 -0.006869 0.361435
v -0.585008 0.027574 0.366442
v -0.590545 -0.006869 0.335977
v -0.597627 0.027574 0.335977
v -0.580000 -0.006869 0.310519
v -0.585008 0.027574 0.305511
v -0.554542 0.046738 0.292892
v -0.524076 0.046738 0.305511
v -0.511457 0.046738 0.335977
v -0.524076 0.046738 0.366442
v -0.554542 0.046738 0.379062
v -0.585008 0.046738 0.366442
v -0.597627 0.046738 0.335977
v -0.585008 0.046738 0.305511
vn 0.376000 -0.186600 -0.907600
vn 0.907600 -0.186600 -0.376000
vn 0.907600 -0.186600 0.376000
vn 0.376000 -0.186600 0.907600
vn -0.376000 -0.186600 0.907600
vn -0.907600 -0.186600 0.376000
vn -0.382700 -0.000000 -0.923900
vn -0.376000 -0.186600 -0.907600
vn -0.907600 -0.186600 -0.376000
vn 0.000000 -1.000000 0.000000
vn 0.000000 1.000000 -0.000000
vn 0.382700 -0.000000 0.923900
vn -0.923900 -0.000000 -0.382700
vn 0.923900 -0.000000 0.382700
vn -0.923900 -0.000000 0.382700
vn 0.923900 -0.000000 -0.382700
vn 0.382700 -0.000000 -0.923900
vn -0.382700 -0.000000 0.923900
usemtl black
s off
f 203//10 204//10 206//10 205//10
f 205//11 206//11 208//11 207//11
f 207//12 208//12 210//12 209//12
f 209//13 210//13 212//13 211//13
f 211//14 212//14 214//14 213//14
f 213//15 214//15 216//15 215//15
f 204//16 218//16 226//16 219//16
f 217//17 218//17 204//17 203//17
f 215//18 216//18 218//18 217//18
f 203//19 205//19 207//19 209//19 211//19 213//19 215//19 217//19
f 220//20 219//20 226//20 225//20 224//20 223//20 222//20 221//20
f 212//21 210//21 222//21 223//21
f 218//22 216//22 225//22 226//22
f 210//23 208//23 221//23 222//23
f 216//24 214//24 224//24 225//24
f 208//25 206//25 220//25 221//25
f 206//26 204//26 219//26 220//26
f 214//27 212//27 223//27 224//27
o support.002_Cylinder.004
v 0.605119 -0.006869 0.299974
v 0.605119 0.027574 0.292892
v 0.630577 -0.006869 0.310519
v 0.635585 0.027574 0.305511
v 0.641122 -0.006869 0.335977
v 0.648204 0.027574 0.335977
v 0.630577 -0.006869 0.361435
v 0.635585 0.027574 0.366442
v 0.605119 -0.006869 0.371980
v 0.605119 0.027574 0.379062
v 0.579661 -0.006869 0.361435
v 0.574653 0.027574 0.366442
v 0.569116 -0.006869 0.335977
v 0.562034 0.027574 0.335977
v 0.579661 -0.006869 0.310519
v 0.574653 0.027574 0.305511
v 0.605119 0.046738 0.292892
v 0.635585 0.046738 0.305511
v 0.648204 0.046738 0.335977
v 0.635585 0.046738 0.366442
v 0.605119 0.046738 0.379062
v 0.574653 0.046738 0.366442
v 0.562034 0.046738 0.335977
v 0.574653 0.046738 0.305511
vn 0.376000 -0.186600 -0.907600
vn 0.907600 -0.186600 -0.376000
vn 0.907600 -0.186600 0.376000
vn 0.376000 -0.186600 0.907600
vn -0.376000 -0.186600 0.907600
vn -0.907600 -0.186600 0.376000
vn -0.382700 0.000000 -0.923900
vn -0.376000 -0.186600 -0.907600
vn -0.907600 -0.186600 -0.376000
vn 0.000000 -1.000000 0.000000
vn 0.000000 1.000000 -0.000000
vn 0.382700 0.000000 0.923900
vn -0.923900 0.000000 -0.382700
vn 0.923900 -0.000000 0.382700
vn -0.923900 0.000000 0.382700
vn 0.923900 -0.000000 -0.382700
vn 0.382700 0.000000 -0.923900
vn -0.382700 0.000000 0.923900
usemtl black
s off
f 227//28 228//28 230//28 229//28
f 229//29 230//29 232//29 231//29
f 231//30 232//30 234//30 233//30
f 233//31 234//31 236//31 235//31
f 235//32 236//32 238//32 237//32
f 237//33 238//33 240//33 239//33
f 228//34 242//34 250//34 243//34
f 241//35 242//35 228//35 227//35
f 239//36 240//36 242//36 241//36
f 227//37 229//37 231//37 233//37 235//37 237//37 239//37 241//37
f 244//38 243//38 250//38 249//38 248//38 247//38 246//38 245//38
f 236//39 234//39 246//39 247//39
f 242//40 240//40 249//40 250//40
f 234//41 232//41 245//41 246//41
f 240//42 238//42 248//42 249//42
f 232//43 230//43 244//43 245//43
f 230//44 228//44 243//44 244//44
f 238//45 236//45 247//45 248//45
o support.001_Cylinder.003
v 0.605119 -0.006869 -0.009992
v 0.605119 0.027574 -0.017074
v 0.630577 -0.006869 0.000553
v 0.635585 0.027574 -0.004455
v 0.641122 -0.006869 0.026011
v 0.648204 0.027574 0.026011
v 0.630577 -0.006869 0.051469
v 0.635585 0.027574 0.056477
v 0.605119 -0.006869 0.062014
v 0.605119 0.027574 0.069096
v 0.579661 -0.006869 0.051469
v 0.574653 0.027574 0.056477
v 0.569116 -0.006869 0.026011
v 0.562034 0.027574 0.026011
v 0.579661 -0.006869 0.000553
v 0.574653 0.027574 -0.004455
v 0.605119 0.046738 -0.017074
v 0.635585 0.046738 -0.004455
v 0.648204 0.046738 0.026011
v 0.635585 0.046738 0.056477
v 0.605119 0.046738 0.069096
v 0.574653 0.046738 0.056477
v 0.562034 0.046738 0.026011
v 0.574653 0.046738 -0.004455
vn 0.376000 -0.186600 -0.907600
vn 0.907600 -0.186600 -0.376000
vn 0.907600 -0.186600 0.376000
vn 0.376000 -0.186600 0.907600
vn -0.376000 -0.186600 0.907600
vn -0.907600 -0.186600 0.376000
vn -0.382700 -0.000000 -0.923900
vn -0.376000 -0.186600 -0.907600
vn -0.907600 -0.186600 -0.376000
vn 0.000000 -1.000000 0.000000
vn 0.000000 1.000000 -0.000000
vn 0.382700 -0.000000 0.923900
vn -0.923900 0.000000 -0.382700
vn 0.923900 -0.000000 0.382700
vn -0.923900 0.000000 0.382700
vn 0.923900 0.000000 -0.382700
vn 0.382700 0.000000 -0.923900
vn -0.382700 0.000000 0.923900
usemtl black
s off
f 251//46 252//46 254//46 253//46
f 253//47 254//47 256//47 255//47
f 255//48 256//48 258//48 257//48
f 257//49 258//49 260//49 259//49
f 259//50 260//50 262//50 261//50
f 261//51 262//51 264//51 263//51
f 252//52 266//52 274//52 267//52
f 265//53 266//53 252//53 251//53
f 263//54 264//54 266//54 265//54
f 251//55 253//55 255//55 257//55 259//55 261//55 263//55 265//55
f 268//56 267//56 274//56 273//56 272//56 271//56 270//56 269//56
f 260//57 258//57 270//57 271//57
f 266//58 264//58 273//58 274//58
f 258//59 256//59 269//59 270//59
f 264//60 262//60 272//60 273//60
f 256//61 254//61 268//61 269//61
f 254//62 252//62 267//62 268//62
f 262//63 260//63 271//63 272//63
o support_Cylinder.002
v -0.554542 -0.006869 -0.009992
v -0.554542 0.027574 -0.017074
v -0.529084 -0.006869 0.000553
v -0.524076 0.027574 -0.004455
v -0.518539 -0.006869 0.026011
v -0.511457 0.027574 0.026011
v -0.529084 -0.006869 0.051469
v -0.524076 0.027574 0.056477
v -0.554542 -0.006869 0.062014
v -0.554542 0.027574 0.069096
v -0.580000 -0.006869 0.051469
v -0.585008 0.027574 0.056477
v -0.590545 -0.006869 0.026011
v -0.597627 0.027574 0.026011
v -0.580000 -0.006869 0.000553
v -0.585008 0.027574 -0.004455
v -0.554542 0.046738 -0.017074
v -0.524076 0.046738 -0.004455
v -0.511457 0.046738 0.026011
v -0.524076 0.046738 0.056477
v -0.554542 0.046738 0.069096
v -0.585008 0.046738 0.056477
v -0.597627 0.046738 0.026011
v -0.585008 0.046738 -0.004455
vn 0.376000 -0.186600 -0.907600
vn 0.907600 -0.186600 -0.376000
vn 0.907600 -0.186600 0.376000
vn 0.376000 -0.186600 0.907600
vn -0.376000 -0.186600 0.907600
vn -0.907600 -0.186600 0.376000
vn -0.382700 0.000000 -0.923900
vn -0.376000 -0.186600 -0.907600
vn -0.907600 -0.186600 -0.376000
vn 0.000000 -1.000000 0.000000
vn 0.000000 1.000000 -0.000000
vn 0.382700 -0.000000 0.923900
vn -0.923900 -0.000000 -0.382700
vn 0.923900 -0.000000 0.382700
vn -0.923900 -0.000000 0.382700
vn 0.923900 -0.000000 -0.382700
vn 0.382700 -0.000000 -0.923900
vn -0.382700 0.000000 0.923900
usemtl black
s off
f 275//64 276//64 278//64 277//64
f 277//65 278//65 280//65 279//65
f 279//66 280//66 282//66 281//66
f 281//67 282//67 284//67 283//67
f 283//68 284//68 286//68 285//68
f 285//69 286//69 288//69 287//69
f 276//70 290//70 298//70 291//70
f 289//71 290//71 276//71 275//71
f 287//72 288//72 290//72 289//72
f 275//73 277//73 279//73 281//73 283//73 285//73 287//73 289//73
f 292//74 291//74 298//74 297//74 296//74 295//74 294//74 293//74
f 284//75 282//75 294//75 295//75
f 290//76 288//76 297//76 298//76
f 282//77 280//77 293//77 294//77
f 288//78 286//78 296//78 297//78
f 280//79 278//79 292//79 293//79
f 278//80 276//80 291//80 292//80
f 286//81 284//81 295//81 296//81
